<svg width="24" height="24" viewBox="0 0 24 24" fill="none" xmlns="http://www.w3.org/2000/svg">
<path fill-rule="evenodd" clip-rule="evenodd" d="M6.11896 3.91008C8.04524 2.50653 10.4095 1.83712 12.7856 2.02249C15.1618 2.20787 17.3936 3.23583 19.0789 4.92113C20.7642 6.60644 21.7922 8.83827 21.9776 11.2144C22.163 13.5906 21.4935 15.9548 20.09 17.8811C18.6864 19.8074 16.641 21.169 14.3224 21.7207C12.1442 22.2389 9.85945 22.0103 7.83253 21.0788L2.32107 22.9471C1.96061 23.0693 1.56205 22.9763 1.29292 22.7072C1.02379 22.438 0.930774 22.0395 1.05296 21.679L2.92125 16.1675C1.98982 14.1406 1.7612 11.8559 2.2794 9.67771C2.83103 7.35904 4.19268 5.31364 6.11896 3.91008ZM7.75 10.75C7.05964 10.75 6.5 11.3096 6.5 12C6.5 12.6904 7.05964 13.25 7.75 13.25H7.76C8.45036 13.25 9.01 12.6904 9.01 12C9.01 11.3096 8.45036 10.75 7.76 10.75H7.75ZM12 10.75C11.3096 10.75 10.75 11.3096 10.75 12C10.75 12.6904 11.3096 13.25 12 13.25H12.01C12.7004 13.25 13.26 12.6904 13.26 12C13.26 11.3096 12.7004 10.75 12.01 10.75H12ZM15 12C15 11.3096 15.5596 10.75 16.25 10.75H16.26C16.9504 10.75 17.51 11.3096 17.51 12C17.51 12.6904 16.9504 13.25 16.26 13.25H16.25C15.5596 13.25 15 12.6904 15 12Z" fill="white"/>
</svg>
