<?xml version="1.0" encoding="UTF-8" standalone="no"?>
<!-- Created with Inkscape (http://www.inkscape.org/) -->

<svg
   width="1024"
   height="1024"
   viewBox="0 0 24 24"
   version="1.1"
   id="svg1"
   inkscape:version="1.4 (e7c3feb1, 2024-10-09)"
   sodipodi:docname="logo_rebuild_inkscape.svg"
   inkscape:export-filename="512.png"
   inkscape:export-xdpi="48"
   inkscape:export-ydpi="48"
   xmlns:inkscape="http://www.inkscape.org/namespaces/inkscape"
   xmlns:sodipodi="http://sodipodi.sourceforge.net/DTD/sodipodi-0.dtd"
   xmlns:xlink="http://www.w3.org/1999/xlink"
   xmlns="http://www.w3.org/2000/svg"
   xmlns:svg="http://www.w3.org/2000/svg">
  <sodipodi:namedview
     id="namedview1"
     pagecolor="#ffffff"
     bordercolor="#000000"
     borderopacity="0.25"
     inkscape:showpageshadow="2"
     inkscape:pageopacity="0.0"
     inkscape:pagecheckerboard="0"
     inkscape:deskcolor="#d1d1d1"
     inkscape:document-units="px"
     showborder="true"
     inkscape:zoom="0.21146167"
     inkscape:cx="423.24454"
     inkscape:cy="936.33989"
     inkscape:window-width="1472"
     inkscape:window-height="829"
     inkscape:window-x="0"
     inkscape:window-y="37"
     inkscape:window-maximized="0"
     inkscape:current-layer="g68" />
  <defs
     id="defs1">
    <linearGradient
       id="linearGradient69"
       inkscape:collect="always">
      <stop
         style="stop-color:#6e5ce5;stop-opacity:1;"
         offset="0"
         id="stop70" />
      <stop
         style="stop-color:#0e0e1e;stop-opacity:0.99836332;"
         offset="0.80634922"
         id="stop71" />
    </linearGradient>
    <linearGradient
       id="linearGradient68"
       inkscape:collect="always">
      <stop
         style="stop-color:#0cf9a2;stop-opacity:1;"
         offset="0.40000001"
         id="stop68" />
      <stop
         style="stop-color:#6e5ce5;stop-opacity:1;"
         offset="1"
         id="stop69" />
    </linearGradient>
    <radialGradient
       inkscape:collect="always"
       xlink:href="#linearGradient68"
       id="radialGradient69"
       cx="-135.46693"
       cy="-135.46693"
       fx="-135.46693"
       fy="-135.46693"
       r="120.76756"
       gradientUnits="userSpaceOnUse"
       gradientTransform="matrix(0,-0.07956916,-0.07956916,0,1.2210089,1.2210089)" />
    <linearGradient
       inkscape:collect="always"
       xlink:href="#linearGradient69"
       id="linearGradient71"
       x1="83.741417"
       y1="-7.6644759"
       x2="83.741417"
       y2="198.17654"
       gradientUnits="userSpaceOnUse"
       gradientTransform="matrix(0.08858267,0,0,0.08858267,-1.2070028,-0.5532096)" />
  </defs>
  <g
     inkscape:label="Shapes"
     inkscape:groupmode="layer"
     id="layer1"
     style="display:none">
    <circle
       style="opacity:1;fill:#d45500;stroke:#000000;stroke-width:0;stroke-linejoin:round;stroke-miterlimit:3;stroke-dasharray:none;stroke-opacity:1"
       id="circle4"
       cx="151.59106"
       cy="97.582916"
       r="57.076801"
       inkscape:label="circle" />
  </g>
  <g
     inkscape:groupmode="layer"
     id="layer2"
     inkscape:label="Working">
    <g
       id="g10"
       inkscape:label="original_circles"
       style="display:none">
      <circle
         style="opacity:1;fill:#999999;stroke:#000000;stroke-width:0;stroke-linejoin:round;stroke-miterlimit:3;stroke-dasharray:none;stroke-opacity:1"
         id="circle7"
         cx="-124.58699"
         cy="-192.54347"
         r="57.076801"
         inkscape:label="circle_right"
         transform="matrix(0,-1,-1,0,0,0)" />
      <circle
         style="opacity:1;fill:#0000ff;stroke:#000000;stroke-width:0;stroke-linejoin:round;stroke-miterlimit:3;stroke-dasharray:none;stroke-opacity:1"
         id="circle8"
         cx="-124.58699"
         cy="-78.389877"
         r="57.076801"
         inkscape:label="circle_left"
         transform="matrix(0,-1,-1,0,0,0)" />
      <circle
         style="opacity:1;fill:#ffff00;stroke:#000000;stroke-width:0;stroke-linejoin:round;stroke-miterlimit:3;stroke-dasharray:none;stroke-opacity:1"
         id="circle9"
         cx="-135.46667"
         cy="67.510193"
         r="57.076801"
         inkscape:label="circle_top"
         transform="scale(-1,1)" />
      <circle
         style="opacity:1;fill:#d45500;stroke:#000000;stroke-width:0;stroke-linejoin:round;stroke-miterlimit:3;stroke-dasharray:none;stroke-opacity:1"
         id="circle10"
         cx="-135.46667"
         cy="181.66379"
         r="57.076801"
         inkscape:label="circle_bottom"
         transform="scale(-1,1)" />
    </g>
    <g
       id="g14"
       inkscape:label="stroke_circles"
       style="display:none">
      <circle
         style="opacity:1;fill:none;stroke:#ff9955;stroke-width:13.2292;stroke-linejoin:round;stroke-miterlimit:3;stroke-dasharray:none;stroke-opacity:1"
         id="circle11"
         cx="-135.46667"
         cy="-192.54347"
         r="57.076801"
         inkscape:label="circle_right"
         transform="matrix(0,-1,-1,0,0,0)" />
      <circle
         style="opacity:1;fill:none;stroke:#ff7f2a;stroke-width:13.2292;stroke-linejoin:round;stroke-miterlimit:3;stroke-dasharray:none;stroke-opacity:1"
         id="circle12"
         cx="-135.46667"
         cy="-78.38987"
         r="57.076801"
         inkscape:label="circle_left"
         transform="matrix(0,-1,-1,0,0,0)" />
      <circle
         style="opacity:1;fill:none;stroke:#ff6600;stroke-width:13.2292;stroke-linejoin:round;stroke-miterlimit:3;stroke-dasharray:none;stroke-opacity:1"
         id="circle13"
         cx="-135.46667"
         cy="78.38987"
         r="57.076801"
         inkscape:label="circle_top"
         transform="scale(-1,1)" />
      <circle
         style="opacity:1;fill:none;stroke:#d45500;stroke-width:13.2292;stroke-linejoin:round;stroke-miterlimit:3;stroke-dasharray:none;stroke-opacity:1"
         id="circle14"
         cx="-135.46667"
         cy="192.54347"
         r="57.076801"
         inkscape:label="circle_bottom"
         transform="scale(-1,1)" />
    </g>
    <g
       id="g18"
       inkscape:label="path_circles"
       style="display:none">
      <path
         style="display:none;fill:#ff9955;stroke-linejoin:round;stroke-miterlimit:3"
         d="m -135.4668,-256.23437 c -35.09744,0 -63.6914,28.59396 -63.6914,63.6914 0,35.09744 28.59396,63.69141 63.6914,63.69141 35.09745,0 63.691409,-28.59397 63.691409,-63.69141 0,-35.09744 -28.593959,-63.69141 -63.691409,-63.6914 z m 0,13.22851 c 27.94785,0 50.462894,22.51504 50.462894,50.46289 0,27.94785 -22.515044,50.46094 -50.462894,50.46094 -27.94785,0 -50.46289,-22.51309 -50.46289,-50.46094 0,-27.94785 22.51504,-50.46289 50.46289,-50.46289 z"
         id="circle15"
         transform="matrix(0,-1,-1,0,0,0)"
         inkscape:label="right" />
      <path
         style="display:none;fill:#000080;stroke-linejoin:round;stroke-miterlimit:3"
         d="m -183.26675,144.74301 c -12.25841,12.25841 -19.8602,29.17346 -19.8602,47.79996 0,18.6265 7.60179,35.54154 19.8602,47.79995 12.25841,12.25841 29.17345,19.8602 47.79995,19.8602 18.62651,0 35.541549,-7.60179 47.799962,-19.8602 12.258412,-12.25841 19.860197,-29.17345 19.860197,-47.79995 0,-18.6265 -7.601785,-35.54155 -19.860197,-47.79996 l -14.871692,14.87274 c 8.396471,8.396 13.565874,20.01905 13.565874,32.92722 0,12.90817 -5.169449,24.5317 -13.565944,32.9282 -8.39649,8.39649 -20.02002,13.56594 -32.9282,13.56594 -12.90817,0 -24.5317,-5.16945 -32.9282,-13.56594 -8.39649,-8.3965 -13.56594,-20.02003 -13.56594,-32.9282 0,-12.90817 5.16941,-24.53122 13.56588,-32.92722"
         id="path19"
         transform="scale(-0.99999999,0.99999999)"
         inkscape:label="bottom_gap_full_c"
         sodipodi:nodetypes="csssssccsssssc" />
      <path
         style="display:inline;fill:#ff7f2a;stroke-linejoin:round;stroke-miterlimit:3"
         d="m -135.4668,-142.08203 c -35.09744,0 -63.6914,28.59396 -63.6914,63.691405 0,35.097442 28.59396,63.691406 63.6914,63.691406 35.09745,0 63.691409,-28.593964 63.691409,-63.691406 0,-35.097445 -28.593959,-63.691405 -63.691409,-63.691405 z m 0,13.23047 c 27.94785,0 50.462894,22.51308 50.462894,50.460935 0,27.947852 -22.515044,50.462891 -50.462894,50.462891 -27.94785,0 -50.46289,-22.515039 -50.46289,-50.462891 0,-27.947855 22.51504,-50.460935 50.46289,-50.460935 z"
         id="circle16"
         transform="matrix(0,-1,-1,0,0,0)"
         inkscape:label="left" />
      <path
         style="display:inline;fill:#000080;stroke-linejoin:round;stroke-miterlimit:3"
         d="m 183.26675,126.19058 c 12.25841,-12.25841 19.8602,-29.173453 19.8602,-47.799955 0,-18.626503 -7.60179,-35.541542 -19.8602,-47.799955 C 171.00834,18.332256 154.0933,10.730469 135.4668,10.730469 c -18.62651,0 -35.541549,7.601788 -47.799962,19.860201 -12.258412,12.258413 -19.860197,29.173452 -19.860197,47.799955 0,18.626502 7.601785,35.541545 19.860197,47.799955 L 102.5386,111.31883 c -8.396496,-8.3965 -13.565944,-20.020033 -13.565944,-32.928205 0,-12.908172 5.169403,-24.531219 13.565874,-32.927223 8.39647,-8.396004 20.02,-13.564966 32.92827,-13.564965 12.90826,0 24.53179,5.168962 32.92826,13.564966 8.39647,8.396004 13.56588,20.01905 13.56588,32.927222 0,12.908172 -5.16945,24.531705 -13.56594,32.928205"
         id="path22"
         inkscape:label="top_gap_full_c"
         sodipodi:nodetypes="csssssccsssssc" />
      <path
         style="display:none;fill:#ff6600;stroke-linejoin:round;stroke-miterlimit:3"
         d="m -135.4668,14.699219 c -35.09744,0 -63.6914,28.593964 -63.6914,63.691406 0,35.097445 28.59396,63.691405 63.6914,63.691405 35.09745,0 63.691409,-28.59396 63.691409,-63.691405 0,-35.097442 -28.593959,-63.691406 -63.691409,-63.691406 z m 0,13.228515 c 27.94785,0 50.462894,22.515039 50.462894,50.462891 0,27.947855 -22.515044,50.460935 -50.462894,50.460935 -27.94785,0 -50.46289,-22.51308 -50.46289,-50.460935 0,-27.947852 22.51504,-50.462891 50.46289,-50.462891 z"
         id="circle17"
         transform="scale(-1,1)"
         inkscape:label="top" />
      <path
         style="display:none;fill:#000080;stroke-linejoin:round;stroke-miterlimit:3"
         d="m 144.74301,183.26675 c 12.25841,12.25841 29.17345,19.8602 47.79996,19.8602 18.6265,0 35.54154,-7.60179 47.79995,-19.8602 12.25841,-12.25841 19.8602,-29.17345 19.8602,-47.79995 0,-18.6265 -7.60179,-35.541544 -19.8602,-47.799958 -12.25841,-12.258414 -29.17345,-19.860201 -47.79995,-19.860201 -18.62651,0 -35.54155,7.601787 -47.79996,19.860201 l 14.87169,14.872728 c 8.39647,-8.396 20.02,-13.564961 32.92827,-13.564961 12.90826,0 24.5318,5.16896 32.92827,13.564961 8.39647,8.39601 13.56587,20.01905 13.56587,32.92723 0,12.90817 -5.16945,24.5317 -13.56594,32.9282 -8.3965,8.39649 -20.02003,13.56594 -32.9282,13.56594 -12.90817,0 -24.53171,-5.16945 -32.9282,-13.56594"
         id="path20"
         inkscape:label="right_gap_full_c"
         sodipodi:nodetypes="csssssccsssssc" />
      <path
         style="display:none;fill:#d45500;stroke-linejoin:round;stroke-miterlimit:3"
         d="m -135.4668,128.85156 c -35.09744,0 -63.6914,28.59397 -63.6914,63.69141 0,35.09744 28.59396,63.6914 63.6914,63.6914 35.09745,0 63.691409,-28.59396 63.691409,-63.6914 0,-35.09744 -28.593959,-63.69141 -63.691409,-63.69141 z m 0,13.23047 c 27.94785,0 50.462894,22.51309 50.462894,50.46094 0,27.94785 -22.515044,50.46289 -50.462894,50.46289 -27.94785,0 -50.46289,-22.51504 -50.46289,-50.46289 0,-27.94785 22.51504,-50.46094 50.46289,-50.46094 z"
         id="circle18"
         transform="scale(-0.99999999,0.99999999)"
         inkscape:label="bottom" />
      <path
         style="display:none;fill:#000080;stroke-linejoin:round;stroke-miterlimit:3"
         d="m 111.31883,168.395 c -8.3965,8.39649 -20.020033,13.56594 -32.928205,13.56594 -12.908172,0 -24.531707,-5.16945 -32.928199,-13.56594 -8.396493,-8.3965 -13.565942,-20.02003 -13.565942,-32.9282 0,-12.90818 5.169403,-24.53122 13.565873,-32.92723 8.396469,-8.396 20.020004,-13.56496 32.928268,-13.564961 12.908263,0 24.531795,5.16896 32.928265,13.564961 L 126.19058,87.666842 C 113.93217,75.408428 97.017127,67.806641 78.390625,67.806641 c -18.626508,0 -35.541547,7.601787 -47.799959,19.860201 C 18.332254,99.925256 10.730469,116.8403 10.730469,135.4668 c 0,18.6265 7.601785,35.54154 19.860197,47.79995 12.258412,12.25841 29.173451,19.8602 47.799959,19.8602 18.626502,0 35.541545,-7.60179 47.799955,-19.8602"
         id="path21"
         inkscape:label="left_gap_full_c"
         sodipodi:nodetypes="csssssccsssssc" />
    </g>
    <g
       id="g65"
       inkscape:label="diff_circles"
       style="display:none">
      <path
         id="path58"
         style="display:inline;fill:#ff9955;stroke-linejoin:round;stroke-miterlimit:3"
         inkscape:label="right"
         d="m -71.775464,-192.54277 c 0,35.09744 -28.593756,63.6912 -63.691206,63.6912 -31.36931,0 -57.52497,-22.84842 -62.73157,-52.76008 1.85393,-0.22166 3.73851,-0.34934 5.65547,-0.34934 2.68919,0 5.31799,0.2365 7.87807,0.66766 5.09101,22.49735 25.12136,39.21105 49.19803,39.21105 27.94785,0 50.462556,-22.51264 50.462556,-50.46049 0,-27.94785 -22.514706,-50.46307 -50.462556,-50.46307 -24.47268,0 -44.77847,17.26428 -49.45021,40.3226 -2.50542,-0.28361 -5.04704,-0.4439 -7.62589,-0.4439 -1.94301,0 -3.8626,0.10197 -5.76502,0.26407 4.95326,-30.2122 31.25774,-53.37142 62.84112,-53.37142 35.09745,-1e-5 63.691206,28.59428 63.691206,63.69172 z"
         transform="matrix(0,-1,-1,0,0,0)" />
      <path
         id="path60"
         style="display:inline;fill:#ff7f2a;stroke-linejoin:round;stroke-miterlimit:3"
         inkscape:label="left"
         d="m -72.625542,-68.070264 c -4.953233,30.212233 -31.257708,53.370903 -62.841128,53.370903 -35.09744,0 -63.69172,-28.593761 -63.69172,-63.691203 0,-35.097446 28.59428,-63.691716 63.69172,-63.691716 31.36951,0 57.525205,22.84866 62.731574,52.7606 -1.854067,0.221693 -3.738344,0.348816 -5.655468,0.348816 -2.689251,0 -5.318421,-0.236472 -7.878589,-0.66766 -5.091139,-22.497176 -25.120967,-39.211046 -49.197517,-39.211046 -27.94785,0 -50.46307,22.51315 -50.46307,50.461006 0,27.947852 22.51522,50.46307 50.46307,50.46307 24.47251,0 44.778285,-17.264528 49.450214,-40.322604 2.505417,0.283613 5.047046,0.443384 7.625892,0.443384 1.943182,0 3.862437,-0.101427 5.765022,-0.26355 z"
         transform="matrix(0,-1,-1,0,0,0)" />
      <path
         id="path62"
         style="display:inline;fill:#ff6600;stroke-linejoin:round;stroke-miterlimit:3"
         inkscape:label="top"
         d="m -135.46667,14.699361 c 35.09745,0 63.691206,28.593761 63.691206,63.691203 0,35.097446 -28.593756,63.691716 -63.691206,63.691716 -31.36878,0 -57.52436,-22.8476 -62.73157,-52.758533 1.85393,-0.221634 3.73851,-0.349332 5.65547,-0.349332 2.6894,0 5.31829,0.236985 7.87859,0.668176 5.09188,22.496159 25.12168,39.208979 49.19751,39.208979 27.94785,0 50.462556,-22.51315 50.462556,-50.461006 0,-27.947852 -22.514706,-50.46307 -50.462556,-50.46307 -24.4725,0 -44.77828,17.264528 -49.45021,40.322604 -2.50542,-0.283613 -5.04704,-0.443384 -7.62589,-0.443384 -1.94301,0 -3.8626,0.101456 -5.76502,0.26355 4.95326,-30.212198 31.25774,-53.370903 62.84112,-53.370903 z"
         transform="scale(-1,1)" />
      <path
         id="path64"
         style="display:inline;fill:#d45500;stroke-linejoin:round;stroke-miterlimit:3"
         inkscape:label="bottom"
         d="m -135.46667,128.85157 c 31.36934,0 57.524999,22.84839 62.731574,52.76009 -1.854034,0.22168 -3.738402,0.34933 -5.655469,0.34933 -2.689251,0 -5.318421,-0.23647 -7.878589,-0.66766 -5.091036,-22.49731 -25.120866,-39.21104 -49.197516,-39.21104 -27.94785,0 -50.46307,22.51263 -50.46307,50.46048 0,27.94785 22.51522,50.46307 50.46307,50.46307 24.47268,0 44.778475,-17.26428 49.450214,-40.3226 2.505421,0.28361 5.047041,0.4439 7.625891,0.4439 1.943187,0 3.862432,-0.10194 5.765023,-0.26407 -4.953233,30.21223 -31.257718,53.37142 -62.841128,53.37142 -35.09744,0 -63.69172,-28.59428 -63.69172,-63.69172 0,-35.09744 28.59428,-63.6912 63.69172,-63.6912 z"
         transform="scale(-0.99999999,0.99999999)" />
    </g>
  </g>
  <g
     id="g68"
     inkscape:label="final">
    <rect
       style="display:none;opacity:1;fill:#0e0e1e;fill-opacity:1;stroke:none;stroke-width:0;stroke-linejoin:round;stroke-miterlimit:3;stroke-dasharray:none;stroke-opacity:1"
       id="rect71"
       width="270.93335"
       height="270.93335"
       x="0"
       y="-8.8817842e-16"
       inkscape:label="solid_bg" />
    <rect
       style="display:inline;opacity:1;fill:url(#linearGradient71);stroke:none;stroke-width:0;stroke-linejoin:round;stroke-miterlimit:3;stroke-dasharray:none;stroke-opacity:1"
       id="rect69"
       width="24"
       height="24"
       x="0"
       y="-8.8817842e-16"
       inkscape:label="gradient_bg" />
    <path
       id="path68"
       style="display:none;fill:#000000;stroke-width:0.898248;stroke-linejoin:round;stroke-miterlimit:3"
       inkscape:label="logo_black"
       d="m 135.46644,26.9875 c -31.5262,0 -57.210471,25.684275 -57.210471,57.210466 0,22.436174 13.014392,41.903504 31.879111,51.270324 -16.042087,7.97096 -27.849329,23.24883 -31.017124,41.44776 1.665381,0.19913 3.358009,0.3138 5.08001,0.3138 2.415613,0 4.777259,-0.21241 7.076923,-0.59973 4.113576,-18.1779 19.087411,-32.14516 37.795581,-34.76957 -3.09201,22.05536 -21.94073,38.93422 -44.872504,38.93422 -25.104089,0 -45.328328,-20.22424 -45.328328,-45.32833 0,-21.98237 15.50782,-40.221986 36.21968,-44.418535 -0.254755,-2.250485 -0.398269,-4.533497 -0.398269,-6.849939 0,-1.745458 0.09111,-3.469424 0.236733,-5.178417 C 47.789718,83.468779 26.9875,107.09671 26.9875,135.46644 c 0,31.52619 25.684275,57.21093 57.210466,57.21093 22.436174,0 41.903504,-13.01473 51.270324,-31.87958 7.97096,16.04208 23.24886,27.84931 41.44776,31.01713 0.19911,-1.66529 0.3138,-3.35811 0.3138,-5.08001 0,-2.41556 -0.21244,-4.77688 -0.59973,-7.07646 -18.17779,-4.11353 -32.145,-19.08754 -34.76957,-37.79558 22.05536,3.09195 38.93422,21.94027 38.93422,44.87204 0,25.10408 -20.22424,45.32832 -45.32833,45.32832 -21.98253,0 -40.222157,-15.50759 -44.418535,-36.21967 -2.250488,0.25475 -4.533493,0.39873 -6.849939,0.39873 -1.745463,0 -3.469419,-0.0916 -5.178417,-0.2372 4.44923,27.13806 28.077171,47.94075 56.446891,47.94075 31.52619,0 57.21093,-25.68475 57.21093,-57.21093 0,-22.43617 -13.01473,-41.90317 -31.87958,-51.26986 16.04186,-7.97073 27.84895,-23.24798 31.01713,-41.446379 -1.66529,-0.199082 -3.35811,-0.313787 -5.08001,-0.313787 -2.41575,0 -4.77715,0.212871 -7.07693,0.600188 -4.11422,18.176828 -19.08769,32.143288 -37.79511,34.767718 3.09175,-22.05552 21.94011,-38.934219 44.87204,-38.934219 25.10408,0 45.32832,20.223779 45.32832,45.327869 0,21.98252 -15.50759,40.22215 -36.21967,44.41853 0.25475,2.25049 0.39873,4.53349 0.39873,6.84994 0,1.7453 -0.0916,3.46957 -0.2372,5.17841 27.13803,-4.44925 47.94075,-28.07719 47.94075,-56.44688 0,-31.5262 -25.68475,-57.210471 -57.21093,-57.210471 -22.43603,0 -41.90311,13.014128 -51.26986,31.878651 -7.97106,-16.042075 -23.2492,-27.849003 -41.448236,-31.016664 -0.199135,1.665411 -0.313323,3.357958 -0.313323,5.08001 0,2.415613 0.212411,4.777259 0.599724,7.076923 18.177795,4.11366 32.145145,19.087481 34.769575,37.795581 -22.05552,-3.09182 -38.934219,-21.94057 -38.934219,-44.872504 0,-25.104089 20.223779,-45.328328 45.327869,-45.328328 21.98236,0 40.22198,15.50782 44.41853,36.21968 2.25049,-0.254755 4.53349,-0.398269 6.84994,-0.398269 1.7453,0 3.46957,0.09113 5.17841,0.236733 C 187.46407,47.78975 163.83613,26.9875 135.46644,26.9875 Z" />
    <path
       id="path72"
       style="display:none;fill:#ffffff;stroke-width:0.898248;stroke-linejoin:round;stroke-miterlimit:3"
       inkscape:label="logo_white"
       d="m 135.46644,26.9875 c -31.5262,0 -57.210471,25.684275 -57.210471,57.210466 0,22.436174 13.014392,41.903504 31.879111,51.270324 -16.042087,7.97096 -27.849329,23.24883 -31.017124,41.44776 1.665381,0.19913 3.358009,0.3138 5.08001,0.3138 2.415613,0 4.777259,-0.21241 7.076923,-0.59973 4.113576,-18.1779 19.087411,-32.14516 37.795581,-34.76957 -3.09201,22.05536 -21.94073,38.93422 -44.872504,38.93422 -25.104089,0 -45.328328,-20.22424 -45.328328,-45.32833 0,-21.98237 15.50782,-40.221986 36.21968,-44.418535 -0.254755,-2.250485 -0.398269,-4.533497 -0.398269,-6.849939 0,-1.745458 0.09111,-3.469424 0.236733,-5.178417 C 47.789718,83.468779 26.9875,107.09671 26.9875,135.46644 c 0,31.52619 25.684275,57.21093 57.210466,57.21093 22.436174,0 41.903504,-13.01473 51.270324,-31.87958 7.97096,16.04208 23.24886,27.84931 41.44776,31.01713 0.19911,-1.66529 0.3138,-3.35811 0.3138,-5.08001 0,-2.41556 -0.21244,-4.77688 -0.59973,-7.07646 -18.17779,-4.11353 -32.145,-19.08754 -34.76957,-37.79558 22.05536,3.09195 38.93422,21.94027 38.93422,44.87204 0,25.10408 -20.22424,45.32832 -45.32833,45.32832 -21.98253,0 -40.222157,-15.50759 -44.418535,-36.21967 -2.250488,0.25475 -4.533493,0.39873 -6.849939,0.39873 -1.745463,0 -3.469419,-0.0916 -5.178417,-0.2372 4.44923,27.13806 28.077171,47.94075 56.446891,47.94075 31.52619,0 57.21093,-25.68475 57.21093,-57.21093 0,-22.43617 -13.01473,-41.90317 -31.87958,-51.26986 16.04186,-7.97073 27.84895,-23.24798 31.01713,-41.446379 -1.66529,-0.199082 -3.35811,-0.313787 -5.08001,-0.313787 -2.41575,0 -4.77715,0.212871 -7.07693,0.600188 -4.11422,18.176828 -19.08769,32.143288 -37.79511,34.767718 3.09175,-22.05552 21.94011,-38.934219 44.87204,-38.934219 25.10408,0 45.32832,20.223779 45.32832,45.327869 0,21.98252 -15.50759,40.22215 -36.21967,44.41853 0.25475,2.25049 0.39873,4.53349 0.39873,6.84994 0,1.7453 -0.0916,3.46957 -0.2372,5.17841 27.13803,-4.44925 47.94075,-28.07719 47.94075,-56.44688 0,-31.5262 -25.68475,-57.210471 -57.21093,-57.210471 -22.43603,0 -41.90311,13.014128 -51.26986,31.878651 -7.97106,-16.042075 -23.2492,-27.849003 -41.448236,-31.016664 -0.199135,1.665411 -0.313323,3.357958 -0.313323,5.08001 0,2.415613 0.212411,4.777259 0.599724,7.076923 18.177795,4.11366 32.145145,19.087481 34.769575,37.795581 -22.05552,-3.09182 -38.934219,-21.94057 -38.934219,-44.872504 0,-25.104089 20.223779,-45.328328 45.327869,-45.328328 21.98236,0 40.22198,15.50782 44.41853,36.21968 2.25049,-0.254755 4.53349,-0.398269 6.84994,-0.398269 1.7453,0 3.46957,0.09113 5.17841,0.236733 C 187.46407,47.78975 163.83613,26.9875 135.46644,26.9875 Z" />
    <path
       id="path73"
       style="display:inline;fill:url(#radialGradient69);stroke-width:0.0795692;stroke-linejoin:round;stroke-miterlimit:3"
       inkscape:label="logo_gradient"
       d="m 11.99998,2.3906248 c -2.7926758,0 -5.0678574,2.2751818 -5.0678574,5.0678561 0,1.987456 1.1528499,3.7119251 2.8239371,4.5416631 -1.4210509,0.706088 -2.4669681,2.059443 -2.7475798,3.671552 0.147524,0.01764 0.2974613,0.0278 0.450001,0.0278 0.2139814,0 0.4231821,-0.01881 0.6268926,-0.05312 0.3643916,-1.610248 1.6908138,-2.847505 3.3480335,-3.079983 -0.273899,1.953724 -1.9435684,3.448898 -3.9749261,3.448898 -2.2237873,0 -4.0153046,-1.791517 -4.0153046,-4.015305 0,-1.947257 1.3737241,-3.5629709 3.2084362,-3.9347125 -0.022568,-0.1993539 -0.035279,-0.4015892 -0.035279,-0.6067856 0,-0.1546176 0.00807,-0.307331 0.020969,-0.4587183 -2.4039629,0.3941197 -4.246679,2.487145 -4.246679,5.0002114 0,2.792674 2.2751817,5.067896 5.067856,5.067896 1.987456,0 3.7119245,-1.152878 4.5416625,-2.823977 0.706089,1.42105 2.059446,2.466967 3.671553,2.74758 0.01764,-0.147516 0.02781,-0.297471 0.02781,-0.45 0,-0.213977 -0.01881,-0.42315 -0.05312,-0.626853 -1.610237,-0.364387 -2.847491,-1.690826 -3.079982,-3.348034 1.953724,0.273894 3.448897,1.943529 3.448897,3.974887 0,2.223786 -1.791516,4.015303 -4.015304,4.015303 -1.947271,0 -3.5629863,-1.373704 -3.9347129,-3.208435 -0.199354,0.02257 -0.4015887,0.03532 -0.6067857,0.03532 -0.1546178,0 -0.3073305,-0.0081 -0.4587182,-0.02101 0.3941247,2.403961 2.487151,4.24672 5.0002168,4.24672 2.792674,0 5.067897,-2.275224 5.067897,-5.067898 0,-1.987455 -1.152879,-3.711894 -2.823978,-4.541621 1.421031,-0.706068 2.466934,-2.0593678 2.74758,-3.6714306 -0.147515,-0.017634 -0.297471,-0.027796 -0.450001,-0.027796 -0.213993,0 -0.423172,0.018858 -0.626894,0.053166 -0.364448,1.610152 -1.690837,2.8473386 -3.347992,3.0798176 0.273876,-1.9537372 1.943515,-3.4488975 3.974886,-3.4488975 2.223787,0 4.015303,1.7914767 4.015303,4.0152645 0,1.94727 -1.373703,3.562985 -3.208435,3.934712 0.02257,0.199354 0.03533,0.401589 0.03533,0.606785 0,0.154604 -0.0081,0.307344 -0.02101,0.458717 2.40396,-0.394126 4.24672,-2.487151 4.24672,-5.000214 0,-2.7926757 -2.275224,-5.0678571 -5.067898,-5.0678571 -1.987443,0 -3.71189,1.1528264 -4.541621,2.823896 -0.706124,-1.421052 -2.0595035,-2.4669414 -3.6716225,-2.7475413 -0.01764,0.1475266 -0.027756,0.2974571 -0.027756,0.450001 0,0.2139814 0.018817,0.4231822 0.053125,0.6268926 1.6102387,0.3643992 2.8475035,1.6908202 3.0799835,3.3480328 -1.9537375,-0.27388 -3.4488979,-1.9435535 -3.4488979,-3.9749254 0,-2.2237872 1.7914767,-4.0153046 4.0152649,-4.0153046 1.947255,0 3.56297,1.3737243 3.934711,3.2084362 0.199355,-0.022568 0.401589,-0.035279 0.606786,-0.035279 0.154603,0 0.307343,0.00807 0.458718,0.02097 C 16.606069,4.2333437 14.513043,2.3906248 11.99998,2.3906248 Z" />
  </g>
</svg>
